<?xml version="1.0" standalone="no"?><!DOCTYPE svg PUBLIC "-//W3C//DTD SVG 1.1//EN" "http://www.w3.org/Graphics/SVG/1.1/DTD/svg11.dtd"><svg class="icon" width="200px" height="200.00px" viewBox="0 0 1024 1024" version="1.1" xmlns="http://www.w3.org/2000/svg"><path fill="#ff8700" d="M384 736c-53.02 0-96 42.98-96 96s42.98 96 96 96 96-42.98 96-96-42.98-96-96-96z m0 128c-17.673 0-32-14.327-32-32s14.327-32 32-32 32 14.327 32 32-14.327 32-32 32zM800 736c-53.02 0-96 42.98-96 96s42.98 96 96 96 96-42.98 96-96-42.98-96-96-96z m0 128c-17.674 0-32-14.327-32-32s14.326-32 32-32 32 14.327 32 32-14.326 32-32 32zM907.942 225.104c-27.701-34.261-73.735-33.707-84.16-33.104H253.553l-5.959-37.078a32.208 32.208 0 0 0-0.55-2.683C241.822 131.351 222.668 96 184 96H96c-17.673 0-32 14.327-32 32s14.327 32 32 32h85.241c1.212 1.706 2.647 4.596 3.486 7.085l71.678 445.993c0.145 0.901 0.329 1.797 0.55 2.683 1.695 6.78 11.223 41.673 32.417 62.867C314.033 703.288 348.187 704 352 704h512c17.673 0 32-14.327 32-32s-14.327-32-32-32H352.333c-3.14-0.13-12.66-1.581-17.706-6.628-6.26-6.26-12.644-22.351-15.281-31.994L315.268 576h509.584c14.533 0 27.241-9.794 30.944-23.848 0.314-1.194 31.831-120.639 62.9-222.846 13.325-43.837 9.707-78.896-10.754-104.202z m-50.48 85.589C834.419 386.498 811.167 471.548 800.278 512H304.982l-41.143-256h561.013c0.897 0 1.795-0.038 2.689-0.113 3.54-0.3 23.104 0.145 30.634 9.457 6.038 7.467 5.778 23.996-0.713 45.349z" /></svg>