<?xml version="1.0" standalone="no"?><!DOCTYPE svg PUBLIC "-//W3C//DTD SVG 1.1//EN" "http://www.w3.org/Graphics/SVG/1.1/DTD/svg11.dtd"><svg class="icon" width="200px" height="200.00px" viewBox="0 0 1024 1024" version="1.1" xmlns="http://www.w3.org/2000/svg"><path fill="#ff8700" d="M832.1 804.07c-19-42.58-49.39-77.33-90.32-103.28a20 20 0 1 0-21.42 33.78c34.17 21.67 59.47 50.53 75.21 85.8A50 50 0 0 1 750 890.85H277.69A50 50 0 0 1 232 820.63c16.66-37.29 43.94-67.39 81.08-89.46 50-29.7 117.57-44.75 201-44.75a291.84 291.84 0 0 0 115-23.46 300.07 300.07 0 0 0 157.9-157.9 293.39 293.39 0 0 0 0-229.94 300.07 300.07 0 0 0-158.06-157.89A296.08 296.08 0 0 0 217.66 390.1c0 53.86 13.25 88.07 13.83 89.53 7.06 17.84 14.79 29.53 21 38.93 7.07 10.71 11.75 17.78 13.78 30.84 1.12 7.27 5.68 44.2-15.36 58.1-14.88 9.83-38.77 6.79-58.09-7.4a20 20 0 0 0-23.68 32.25c33.08 24.27 74.8 27.7 103.82 8.52 18.58-12.27 30.17-32.62 33.53-58.87a140.13 140.13 0 0 0-0.7-38.73c-3.36-21.7-11.79-34.44-19.94-46.77-5.73-8.67-11.65-17.63-17.18-31.58-0.11-0.28-11-29.22-11-74.82A256.32 256.32 0 0 1 514 133.77c68 0 132.18 26.8 180.84 75.45s75.46 112.9 75.46 180.88-26.8 132.2-75.46 180.9S582 646.42 514 646.42c-205 0-286.36 85.86-318.55 157.89a90 90 0 0 0 82.26 126.54H750a90 90 0 0 0 82.1-126.78z"  /><path fill="#ff8700" d="M435.23 446.68V346.14a20 20 0 0 0-40 0v100.54a20 20 0 1 0 40 0zM632.32 446.68V346.14a20 20 0 0 0-40 0v100.54a20 20 0 0 0 40 0z"  /></svg>