<?xml version="1.0" standalone="no"?><!DOCTYPE svg PUBLIC "-//W3C//DTD SVG 1.1//EN" "http://www.w3.org/Graphics/SVG/1.1/DTD/svg11.dtd"><svg class="icon" width="200px" height="200.00px" viewBox="0 0 1024 1024" version="1.1" xmlns="http://www.w3.org/2000/svg"><path d="M735.8 795.3H329c-16.5 0-29.9-13.4-29.9-29.9v-32.8h466.7v32.8c-0.1 16.5-13.5 29.9-30 29.9z" fill="#BAF4EA" /><path d="M694.8 823.3H370c-54.6 0-98.9-44.4-98.9-98.9V415.1h522.7v309.2c-0.1 54.6-44.4 99-99 99zM327.1 471.1v253.2c0 23.7 19.3 42.9 42.9 42.9h324.8c23.7 0 42.9-19.3 42.9-42.9V471.1H327.1z" fill="#2D5B56" /><path d="M576.5 795.3h-82.7c-9.5 0-17.1-7.7-17.1-17.1v-52.7c0-6.6 5.4-12 12-12h93c6.6 0 12 5.4 12 12v52.7c-0.1 9.5-7.8 17.1-17.2 17.1z" fill="#BAF4EA" /><path d="M571.7 823.3h-73.2c-27.5 0-49.9-22.4-49.9-49.9v-96.8c0-23.9 19.4-43.3 43.3-43.3h86.3c23.9 0 43.3 19.4 43.3 43.3v96.8c0.1 27.5-22.3 49.9-49.8 49.9z m-67.1-56h61v-78.1h-61v78.1z" fill="#2D5B56" /><path d="M270.4 529.4l67.2 42.3 47.3-18.6 52.3-38.6 33.6 13.7 51 33.6 63.5-2.5 43.5-38.6H655l34.8 34.9 62.2 9.9 46.1-19.9 28.6-57.2-28.6-148.1-48.5-71-426.9 2.5-67.2 175.5z" fill="#FFFFFF" /><path d="M796.6 421.9l16.9 37.1c10.8 23.6 5.4 51.5-13.5 69.3L783.6 544c-15.7 14.9-38 20.3-58.8 14.4L657.6 539c-15.8-4.5-32.8-2.5-47 5.6l-34.4 19.7c-16 9.2-35.4 10.6-52.6 3.8L460 543c-13.6-5.4-28.7-5.7-42.5-0.8L352.2 565c-28.5 10-60.1-2.4-74.1-29.2l-12-22.9c-8.4-16-9.2-34.9-2.3-51.5l17.8-43c9.5-23 32.1-55.9 57.1-55.6l403.4 5.5c23.5 0.3 44.8 32.2 54.5 53.6z" fill="#BAF4EA" /><path d="M342.6 597.2h-1.7c-32.4-0.4-63-13.3-86.1-36.2-23.2-22.9-36.4-53.3-37.2-85.7-0.4-18.3 2.9-35.9 10.1-52.5 0.5-2.9 1.4-5.7 2.4-8.4l54.3-140.7c7.2-18.7 25.5-31.2 45.5-31.2h43.9c15.5 0 28 12.5 28 28s-12.5 28-28 28h-38.9l-52.1 135.1-0.3 4.2-2.3 4.9c-4.6 9.8-6.8 20.3-6.6 31.3 0.9 36.6 31.4 66.8 68.1 67.3 31.6 0.4 59.4-20.5 67.6-50.9 4-14.9 19.4-23.7 34.3-19.7 14.9 4 23.7 19.4 19.7 34.3-14.8 54.5-64.3 92.2-120.7 92.2z" fill="#2D5B56" /><path d="M459.1 270.5h-18.2" fill="#BAF4EA" /><path d="M459.1 298.5h-18.3c-15.5 0-28-12.5-28-28s12.5-28 28-28h18.3c15.5 0 28 12.5 28 28s-12.5 28-28 28zM732.6 597.2h-1.3c-38-0.4-73.1-18.1-96.2-46.7-23.3 29-58.9 46.7-97.5 46.7-56.2 0-105.8-37.8-120.6-92-4.1-14.9 4.7-30.3 19.6-34.4 14.9-4.1 30.3 4.7 34.4 19.6 8.2 29.9 35.6 50.8 66.6 50.8 29.5 0 55.7-18.7 65.3-46.5 4-11.6 15.1-19.2 27.4-18.8l11.6 0.4c11.6 0.4 21.7 7.8 25.5 18.7 9.6 27.4 35.5 46 64.5 46.2h0.7c18.1 0 35.3-7.1 48.4-20 13.2-13 20.6-30.3 20.7-48.7 0.1-11.2-2.5-21.9-7.5-31.8-1.1-2.1-1.9-4.4-2.4-6.7l-52.3-135.5H544.6c-15.5 0-28-12.5-28-28s12.5-28 28-28h199.8c20 0 38.3 12.5 45.5 31.2l54.3 140.7c0.5 1.3 0.9 2.5 1.3 3.8 8.1 16.9 12.3 35.8 12.2 54.6-0.2 33.4-13.5 64.7-37.4 88.3-23.7 23.4-54.8 36.1-87.7 36.1z" fill="#2D5B56" /><path d="M331.5 293.7L278 432.5l-0.3 4.1-1.9 4c-5 10.5-7.3 21.7-7 33.4 1 39.1 33.6 71.4 72.8 72 19.9 0.3 38.7-7.3 52.9-21.3 9.9-9.7 16.7-21.7 19.9-34.8 2.5-10.4 11.9-17.7 22.6-17.7 15 0 26.2 14 22.6 28.6-5.2 21.5-16.3 41.2-32.4 57.1-22.7 22.4-52.6 34.7-84.5 34.7H341c-31.1-0.4-60.6-12.8-82.8-34.8-22.3-22-35-51.3-35.8-82.4-0.4-17.7 2.9-34.9 9.9-51 0.5-2.8 1.3-5.5 2.3-8.1l54.3-140.7c6.5-16.8 23-28.1 41-28.1M744.4 247.3c18 0 34.5 11.3 41 28.1l54.3 140.7c0.5 1.2 0.9 2.5 1.3 3.8 7.9 16.4 12 34.6 11.9 52.9-0.2 32.1-13 62.2-36 84.9-22.7 22.4-52.6 34.7-84.3 34.7h-1.2c-31.9-0.3-61.8-13-84.2-35.6-15.6-15.8-26.4-35.1-31.5-56.2-3.5-14.5 7.7-28.5 22.6-28.5 10.7 0 20 7.3 22.5 17.6 7.9 31.9 36.7 55.9 70.9 56.2h0.7c19.4 0 37.7-7.6 51.7-21.3 14.2-13.9 22-32.4 22.1-52.1 0.1-12-2.6-23.4-8.1-34l-1.5-2.9-0.6-3-53.6-138.9" fill="#2D5B56" /><path d="M537.6 592.5c-56.5 0-104-39.1-116.8-91.6-3.6-14.6 7.6-28.7 22.6-28.7 10.7 0 20 7.2 22.5 17.6C473.8 522 503 546 537.6 546c34.7 0 63.8-24 71.7-56.2 2.5-10.4 11.9-17.6 22.5-17.6 15 0 26.2 14.1 22.6 28.7-12.9 52.5-60.4 91.6-116.8 91.6z" fill="#2D5B56" /><path d="M183.7 147.7c12 0 21.7 9.7 21.7 21.7s-9.7 21.7-21.7 21.7-21.7-9.7-21.7-21.7 9.7-21.7 21.7-21.7m0-40c-34 0-61.7 27.7-61.7 61.7s27.7 61.7 61.7 61.7 61.7-27.7 61.7-61.7-27.7-61.7-61.7-61.7zM191.2 952.3h-0.2c-8.3-0.1-14.9-6.9-14.8-15.2l1-69.5c0.1-8.2 6.8-14.8 15-14.8h0.2c8.3 0.1 14.9 6.9 14.8 15.2l-1 69.5c-0.2 8.2-6.9 14.8-15 14.8z" fill="#2D5B56" /><path d="M241.4 903v0.2c-0.1 8.3-6.9 14.9-15.2 14.8l-69.5-1c-8.2-0.1-14.8-6.8-14.8-15v-0.2c0.1-8.3 6.9-14.9 15.2-14.8l69.5 1c8.2 0.2 14.8 6.9 14.8 15z" fill="#2D5B56" /><path d="M923.9 901m-30.9 0a30.9 30.9 0 1 0 61.8 0 30.9 30.9 0 1 0-61.8 0Z" fill="#2D5B56" /><path d="M149.9 609m-20.7 0a20.7 20.7 0 1 0 41.4 0 20.7 20.7 0 1 0-41.4 0Z" fill="#2D5B56" /><path d="M890 111v30.8M890 151.8c-5.5 0-10-4.5-10-10V111c0-5.5 4.5-10 10-10s10 4.5 10 10v30.8c0 5.5-4.5 10-10 10zM890 193.6v30.8M890 234.4c-5.5 0-10-4.5-10-10v-30.8c0-5.5 4.5-10 10-10s10 4.5 10 10v30.8c0 5.5-4.5 10-10 10zM833.3 167.7h30.8M864.1 177.7h-30.8c-5.5 0-10-4.5-10-10s4.5-10 10-10h30.8c5.5 0 10 4.5 10 10s-4.5 10-10 10zM915.9 167.7h30.7M946.6 177.7h-30.8c-5.5 0-10-4.5-10-10s4.5-10 10-10h30.8c5.5 0 10 4.5 10 10s-4.4 10-10 10z" fill="#2D5B56" /><path d="M849.9 207.8l21.8-21.8M849.9 217.8c-2.6 0-5.1-1-7.1-2.9-3.9-3.9-3.9-10.2 0-14.1l21.8-21.8c3.9-3.9 10.2-3.9 14.1 0 3.9 3.9 3.9 10.2 0 14.1L857 214.9c-2 1.9-4.5 2.9-7.1 2.9z" fill="#2D5B56" /><path d="M908.3 149.4l21.7-21.8M908.3 159.4c-2.6 0-5.1-1-7.1-2.9-3.9-3.9-3.9-10.2 0-14.1l21.8-21.8c3.9-3.9 10.2-3.9 14.1 0 3.9 3.9 3.9 10.2 0 14.1l-21.8 21.8c-1.9 1.9-4.5 2.9-7 2.9z" fill="#2D5B56" /><path d="M930 207.8L908.3 186M930 217.8c-2.6 0-5.1-1-7.1-2.9l-21.8-21.8c-3.9-3.9-3.9-10.2 0-14.1 3.9-3.9 10.2-3.9 14.1 0l21.8 21.8c3.9 3.9 3.9 10.2 0 14.1-1.8 1.9-4.4 2.9-7 2.9z" fill="#2D5B56" /><path d="M871.7 149.4l-21.8-21.8M871.7 159.4c-2.6 0-5.1-1-7.1-2.9l-21.8-21.8c-3.9-3.9-3.9-10.2 0-14.1 3.9-3.9 10.2-3.9 14.1 0l21.8 21.8c3.9 3.9 3.9 10.2 0 14.1-1.9 1.9-4.5 2.9-7 2.9z" fill="#2D5B56" /></svg>