<?xml version="1.0" standalone="no"?><!DOCTYPE svg PUBLIC "-//W3C//DTD SVG 1.1//EN" "http://www.w3.org/Graphics/SVG/1.1/DTD/svg11.dtd"><svg class="icon" width="200px" height="200.00px" viewBox="0 0 1024 1024" version="1.1" xmlns="http://www.w3.org/2000/svg"><path fill="#333333" d="M369.152 822.784L363.52 803.84c-2.56-11.264 3.072-22.528 13.312-26.624 13.824-5.632 55.808-26.112 87.04-68.608-191.488-14.848-337.92-139.776-337.92-292.352C125.952 254.464 294.4 122.88 501.76 122.88s375.808 131.584 375.808 293.888c0 139.264-89.6 246.784-240.64 288.768-42.496 110.592-169.472 114.176-230.912 115.712-7.168 0-13.312 0.512-18.432 0.512l-18.432 1.024z m15.36-45.056zM501.76 166.912c-182.784 0-331.776 112.128-331.776 249.344 0 134.656 140.288 244.224 319.488 249.344 10.752 0.512 19.968 6.144 25.088 15.36 5.12 9.216 5.632 20.48 0 29.696-14.336 25.6-32.256 46.08-50.176 61.952 52.736-6.656 111.616-26.624 132.608-88.064 4.608-13.824 13.824-18.432 19.968-20.48 137.216-35.328 216.064-125.952 216.064-248.32 0.512-136.704-148.48-248.832-331.264-248.832z m-13.824 543.232z m140.8-2.56z"  /><path fill="#333333" d="M335.872 443.392m-33.28 0a33.28 33.28 0 1 0 66.56 0 33.28 33.28 0 1 0-66.56 0Z"  /><path fill="#333333" d="M513.024 443.392m-33.28 0a33.28 33.28 0 1 0 66.56 0 33.28 33.28 0 1 0-66.56 0Z"  /><path fill="#333333" d="M667.648 443.392m-33.28 0a33.28 33.28 0 1 0 66.56 0 33.28 33.28 0 1 0-66.56 0Z"  /></svg>